<svg xmlns="http://www.w3.org/2000/svg" width="28" height="28" viewBox="0 0 28 28"><defs><linearGradient id="vvkla" x1="15.78" x2="12.91" y1="7.11" y2="18.26" gradientUnits="userSpaceOnUse"><stop offset="0" stop-color="#e14b16"/><stop offset="1" stop-color="#8519c7"/></linearGradient><linearGradient id="vvklb" x1="18.37" x2="11.33" y1="-2.94" y2="24.47" gradientUnits="userSpaceOnUse"><stop offset="0" stop-color="#e14b16"/><stop offset="1" stop-color="#8519c7"/></linearGradient><linearGradient id="vvklc" x1="23.28" x2="8.32" y1="-21.98" y2="36.24" gradientUnits="userSpaceOnUse"><stop offset="0" stop-color="#e14b16"/><stop offset="1" stop-color="#8519c7"/></linearGradient></defs><g><g><g><path fill="url(#vvkla)" d="M16.68 14a2.68 2.68 0 1 1-5.36 0 2.68 2.68 0 0 1 5.36 0z"/></g><g><path fill="url(#vvklb)" d="M18.292 10.674a.965.965 0 1 1 0-1.93.965.965 0 0 1 0 1.93zm-4.291 7.455a4.128 4.128 0 1 1 0-8.257 4.128 4.128 0 0 1 0 8.257zm5.665-9.794a2.49 2.49 0 0 0-.924-.601c-.283-.11-.709-.241-1.493-.277-.848-.039-1.102-.047-3.248-.047-2.147 0-2.401.008-3.249.047-.784.036-1.21.167-1.492.277-.35.128-.666.334-.925.601-.267.26-.472.575-.601.924-.11.284-.241.71-.277 1.493-.039.848-.047 1.102-.047 3.249 0 2.146.008 2.4.047 3.248.036.784.167 1.21.277 1.493.129.35.334.665.601.924.26.267.575.473.924.602.284.11.71.24 1.493.276.848.04 1.102.047 3.248.047 2.147 0 2.402-.008 3.25-.047.783-.035 1.209-.166 1.492-.276a2.662 2.662 0 0 0 1.526-1.526c.11-.283.24-.709.276-1.493.04-.848.047-1.102.047-3.248 0-2.147-.008-2.401-.047-3.249-.035-.784-.166-1.21-.276-1.493a2.49 2.49 0 0 0-.602-.924z"/></g><g><path fill="url(#vvklc)" d="M21.617 19.266a4.11 4.11 0 0 1-2.351 2.351c-.511.199-1.096.334-1.951.374-.858.039-1.132.048-3.315.048s-2.457-.01-3.314-.048c-.856-.04-1.44-.175-1.952-.374a3.939 3.939 0 0 1-1.424-.927 3.94 3.94 0 0 1-.927-1.424c-.198-.511-.334-1.096-.373-1.951-.04-.858-.05-1.132-.05-3.315s.01-2.457.05-3.314c.038-.856.174-1.44.373-1.952A3.938 3.938 0 0 1 7.31 7.31c.402-.409.888-.725 1.424-.927.512-.199 1.096-.334 1.952-.374.857-.039 1.13-.048 3.314-.048 2.183 0 2.457.01 3.314.049.856.039 1.44.174 1.952.373a3.94 3.94 0 0 1 1.424.927c.409.402.725.888.927 1.424.199.512.335 1.096.374 1.952.039.857.048 1.13.048 3.314 0 2.183-.01 2.457-.048 3.314-.04.856-.175 1.44-.374 1.952zM14 0C6.27 0 0 6.27 0 14s6.27 14 14 14 14-6.27 14-14S21.73 0 14 0z"/></g></g></g></svg>