<svg xmlns="http://www.w3.org/2000/svg" width="49" height="46" viewBox="0 0 49 46"><g><g><g><path fill="#3ba53c" d="M3 25v18c0 1.656 1.347 3 3 3h15V25z"/></g><g><path fill="#3ba53c" d="M28.307 11.985c-.435 0-.564-.096-.564-.1-.713-.725 1.339-5.941 3.403-7.983 1.234-1.226 3.393-1.232 4.64 0a3.24 3.24 0 0 1 0 4.614c-1.32 1.307-5.36 3.47-7.48 3.47zm-7.05-.1s-.129.1-.567.1c-2.116 0-6.155-2.162-7.475-3.47a3.246 3.246 0 0 1 0-4.613 3.28 3.28 0 0 1 2.321-.952c.873 0 1.697.338 2.318.952 2.065 2.042 4.116 7.258 3.403 7.984zm24.68.09h-9.69c.696-.466 1.293-.93 1.71-1.345a6.209 6.209 0 0 0 0-8.85c-2.401-2.376-6.585-2.37-8.983 0-1.329 1.309-4.85 6.636-4.364 10.195h-.22c.484-3.559-3.038-8.886-4.364-10.195-2.401-2.37-6.585-2.37-8.983 0a6.217 6.217 0 0 0-.003 8.85c.42.416 1.017.879 1.712 1.345h-9.69C1.375 11.975 0 13.325 0 14.983v4.513C0 20.326.686 21 1.531 21h19.906v-6.017h6.125V21H47.47c.845 0 1.531-.674 1.531-1.504v-4.513c0-1.657-1.372-3.008-3.063-3.008z"/></g><g><path fill="#3ba53c" d="M28 25v21h15c1.656 0 3-1.344 3-3V25z"/></g></g></g></svg>