<svg xmlns="http://www.w3.org/2000/svg" width="28" height="28" viewBox="0 0 28 28"><g><g><path fill="#2471ab" d="M21.056 15.468c.652.635 1.34 1.233 1.925 1.934.259.31.503.63.689.991.265.514.026 1.078-.435 1.108h-2.862c-.74.061-1.328-.237-1.824-.741-.396-.403-.763-.832-1.145-1.248a2.675 2.675 0 0 0-.515-.458c-.39-.254-.73-.176-.953.231-.228.414-.28.873-.301 1.334-.031.674-.235.85-.912.882-1.447.068-2.82-.151-4.096-.88-1.126-.642-1.997-1.55-2.757-2.576-1.478-2.002-2.61-4.199-3.628-6.459-.229-.509-.061-.78.501-.791a79.754 79.754 0 0 1 2.803-.001c.38.006.632.223.778.581a17.36 17.36 0 0 0 1.899 3.515c.207.291.417.582.718.788.332.227.584.152.74-.218.1-.235.144-.486.166-.738.074-.862.083-1.724-.046-2.583-.08-.538-.383-.885-.92-.986-.273-.052-.233-.153-.1-.309.231-.27.447-.436.88-.436h3.233c.51.1.624.328.693.84l.003 3.59c-.006.198.1.786.457.915.286.095.474-.134.645-.315.776-.822 1.328-1.792 1.823-2.796.218-.442.407-.9.59-1.36.136-.339.347-.506.731-.5l3.114.003c.092 0 .185.001.276.017.525.09.669.315.506.826-.255.804-.752 1.473-1.237 2.144-.52.718-1.075 1.41-1.59 2.132-.474.66-.436.992.151 1.564zM13.964 0C6.252 0 0 6.252 0 13.964 0 21.677 6.252 27.93 13.964 27.93c7.712 0 13.965-6.252 13.965-13.965C27.929 6.252 21.676 0 13.964 0z"/></g></g></svg>