<svg xmlns="http://www.w3.org/2000/svg" width="30" height="30" viewBox="0 0 30 30"><g><g><path fill="#3ba53c" d="M24.69 12.701L14.102 23.295a1.22 1.22 0 0 1-.897.371c-.338 0-.63-.123-.878-.37l-7.06-7.063a1.192 1.192 0 0 1-.35-.878c0-.364.116-.664.35-.898l1.775-1.756a1.2 1.2 0 0 1 .878-.37c.338 0 .63.123.877.37l4.408 4.41L21.16 9.17c.247-.247.54-.37.877-.37.338 0 .631.123.878.37l1.775 1.756c.234.234.35.533.35.897 0 .352-.116.644-.35.878zm3.269-5.238a14.921 14.921 0 0 0-5.453-5.453C20.21.67 17.703 0 14.984 0c-2.718 0-5.225.67-7.52 2.01A14.917 14.917 0 0 0 2.01 7.463C.67 9.759 0 12.266 0 14.984c0 2.719.67 5.225 2.01 7.521a14.921 14.921 0 0 0 5.453 5.454c2.296 1.34 4.803 2.01 7.521 2.01 2.719 0 5.226-.67 7.522-2.01a14.917 14.917 0 0 0 5.453-5.454c1.34-2.295 2.009-4.803 2.009-7.52 0-2.72-.67-5.227-2.009-7.522z"/></g></g></svg>