<svg xmlns="http://www.w3.org/2000/svg" width="28" height="28" viewBox="0 0 28 28"><g><g><g><path fill="#dd1e1e" d="M12.26 16.626l4.554-2.623-4.554-2.623z"/></g><g><path fill="#dd1e1e" d="M22.388 18.223a2.192 2.192 0 0 1-1.542 1.542c-1.37.36-6.846.36-6.846.36s-5.462 0-6.846-.375a2.192 2.192 0 0 1-1.542-1.542c-.36-1.354-.36-4.208-.36-4.208s0-2.839.36-4.208a2.237 2.237 0 0 1 1.542-1.557c1.37-.36 6.846-.36 6.846-.36s5.476 0 6.846.375c.749.201 1.34.792 1.542 1.542.374 1.369.36 4.222.36 4.222s0 2.84-.36 4.209zM14 0C6.27 0 0 6.27 0 14s6.27 14 14 14 14-6.27 14-14S21.73 0 14 0z"/></g></g></g></svg>